<?xml version="1.0" encoding="iso-8859-1"?>
<!-- Generator: Adobe Illustrator 19.0.0, SVG Export Plug-In . SVG Version: 6.00 Build 0)  -->
<svg version="1.1" id="Capa_1" xmlns="http://www.w3.org/2000/svg" xmlns:xlink="http://www.w3.org/1999/xlink" x="0px" y="0px"
	 viewBox="0 0 512.072 512.072" style="enable-background:new 0 0 512.072 512.072;" xml:space="preserve">
<g>
	<circle style="fill:#90A4AE;" cx="416.036" cy="64.036" r="64"/>
	<circle style="fill:#90A4AE;" cx="96.036" cy="64.036" r="64"/>
	<path style="fill:#90A4AE;" d="M511.936,302.036l-14.5-113.1c-1.6-16.4-15.3-28.8-31.8-28.8h-17.6c-4.3,0-8.3,1.7-11.3,4.7
		l-20.7,20.5l-20.7-20.7c-3-3-7.1-4.7-11.3-4.7h-17.5c-2,0-4,0.2-5.9,0.5c3.9,7.2,7.6,16.1,8.5,24.6l14.5,112.8
		c1.8,13.7-2.5,27.6-11.7,37.9c-4.1,4.7-10.2,8.5-15.9,11.3l10.6,104.1c1.6,16.4,15.3,28.8,31.8,28.8h35c16.5,0,30.2-12.4,31.9-29.1
		l13.5-130.8h17.2c4.6,0,9-2,12-5.4C511.136,311.136,512.536,306.536,511.936,302.036z"/>
	<path style="fill:#90A4AE;" d="M176.536,183.936c0.2,0.7,0.3,1.4,0.5,2.1C176.836,185.336,176.636,184.636,176.536,183.936z"/>
	<path style="fill:#90A4AE;" d="M177.036,186.436c0.1,0.8,0.3,1.6,0.3,2.4C177.336,188.036,177.136,187.236,177.036,186.436z"/>
	<path style="fill:#90A4AE;" d="M175.736,181.436c0.2,0.6,0.4,1.2,0.6,1.8C176.136,182.636,175.936,182.036,175.736,181.436z"/>
	<path style="fill:#90A4AE;" d="M139.936,335.736c-9.1-10.3-13.3-24.1-11.6-37.8l14.6-113.6c0.9-8.5,4.3-16.7,8.2-23.8
		c-1.8-0.3-3.7-0.5-5.6-0.5h-17.5c-4.3,0-8.3,1.7-11.3,4.7l-20.7,20.6l-20.7-20.7c-3-3-7.1-4.7-11.3-4.7h-17.5
		c-16.5,0-30.2,12.4-31.8,28.4l-14.6,113.7c-0.6,4.5,0.8,9.2,3.9,12.6c3,3.5,7.4,5.4,12,5.4h17.3l13.4,131.2
		c1.6,16.4,15.3,28.8,31.8,28.8h35c16.5,0,30.2-12.4,31.9-29.1l10.6-103.7C150.236,344.536,144.236,340.636,139.936,335.736z"/>
	<path style="fill:#90A4AE;" d="M175.036,179.636c0.1,0.3,0.2,0.5,0.3,0.8C175.236,180.136,175.136,179.836,175.036,179.636z"/>
</g>
<g>
	<circle style="fill:#455A64;" cx="256.036" cy="64.036" r="64"/>
	<path style="fill:#455A64;" d="M337.336,188.836c-1.6-16.4-15.3-28.8-31.8-28.8h-17.5c-4.3,0-8.3,1.7-11.3,4.7l-20.7,20.6
		l-20.7-20.7c-3-3-7.1-4.7-11.3-4.7h-17.5c-16.5,0-30.2,12.4-31.8,28.4l-14.6,113.7c-0.6,4.5,0.8,9.2,3.9,12.6c3,3.5,7.4,5.4,12,5.4
		h17.3l13.4,163.2c1.6,16.4,15.3,28.8,31.8,28.8h35c16.5,0,30.2-12.4,31.9-29.1l13.4-162.9h17.2c4.6,0,9-2,12-5.4
		c3.1-3.4,4.5-8,3.9-12.6L337.336,188.836z"/>
</g>
<g>
</g>
<g>
</g>
<g>
</g>
<g>
</g>
<g>
</g>
<g>
</g>
<g>
</g>
<g>
</g>
<g>
</g>
<g>
</g>
<g>
</g>
<g>
</g>
<g>
</g>
<g>
</g>
<g>
</g>
</svg>
